<mxfile host="app.diagrams.net" modified="2023-11-07T20:30:45.276Z" agent="Mozilla/5.0 (Windows NT 10.0; Win64; x64) AppleWebKit/537.36 (KHTML, like Gecko) Chrome/119.0.0.0 Safari/537.36" version="21.8.2" etag="VwJK80HzLumyFS1cBHOd" type="github">
  <diagram name="PÃ¡gina-1" id="ujs0x00TkizRTv1ibfaU">
    <mxGraphModel>
      <root>
        <mxCell id="0" />
        <mxCell id="1" parent="0" />
      </root>
    </mxGraphModel>
  </diagram>
</mxfile>
